<?xml version="1.0" encoding="UTF-8" standalone="no"?>
<!-- Generator: Gravit.io -->
<svg xmlns="http://www.w3.org/2000/svg" xmlns:xlink="http://www.w3.org/1999/xlink" style="isolation:isolate" viewBox="0 0 707.1 200" width="707.1" height="200"><defs><clipPath id="_clipPath_EeEQUfg2EzapOJuUQ6MgGov6fWMMjuW5"><rect width="707.1" height="200"/></clipPath></defs><g clip-path="url(#_clipPath_EeEQUfg2EzapOJuUQ6MgGov6fWMMjuW5)"><path d=" M 167.001 73.066 C 163.533 71.732 159.832 70.521 155.941 69.435 C 156.946 65.522 157.748 61.711 158.327 58.04 C 161.34 38.932 158.01 25.527 148.95 20.297 C 146.317 18.776 143.29 18.005 139.954 18.005 C 129.419 18.005 116.106 25.829 102.676 39.043 C 99.742 36.162 96.795 33.515 93.857 31.139 C 78.816 18.975 65.541 15.157 56.482 20.387 C 50.66 23.749 47.119 30.614 46.243 40.239 C 46.096 41.855 47.287 43.285 48.904 43.432 C 50.525 43.582 51.95 42.388 52.097 40.771 C 52.582 35.444 54.246 28.466 59.421 25.478 C 66.127 21.606 77.331 25.335 90.161 35.71 C 92.96 37.974 95.77 40.498 98.571 43.248 C 92.938 49.241 87.333 56.139 81.95 63.763 C 72.482 64.625 63.463 66.071 55.186 68.054 C 53.737 62.42 52.741 57.044 52.25 52.053 C 52.091 50.438 50.659 49.257 49.037 49.416 C 47.422 49.575 46.241 51.013 46.4 52.629 C 46.92 57.909 47.971 63.589 49.503 69.533 C 45.742 70.594 42.162 71.772 38.799 73.065 C 20.743 80.01 10.8 89.596 10.8 100.058 C 10.8 110.519 20.743 120.105 38.798 127.05 C 42.267 128.384 45.967 129.594 49.858 130.681 C 48.854 134.594 48.052 138.404 47.473 142.075 C 44.459 161.184 47.789 174.588 56.849 179.819 C 59.483 181.339 62.51 182.111 65.845 182.111 C 76.26 182.111 89.388 174.462 102.661 161.523 C 105.504 164.3 108.36 166.857 111.206 169.158 C 121.851 177.767 131.609 182.196 139.616 182.195 C 142.923 182.195 145.933 181.439 148.581 179.91 C 157.641 174.679 160.971 161.275 157.958 142.166 C 157.379 138.496 156.577 134.686 155.572 130.773 C 161.623 129.107 167.189 127.144 172.118 124.91 C 173.597 124.24 174.252 122.498 173.582 121.02 C 172.912 119.541 171.17 118.885 169.692 119.556 C 165.023 121.671 159.746 123.534 153.999 125.118 C 151.622 117.177 148.458 108.888 144.602 100.502 C 148.631 91.833 151.925 83.257 154.378 75.053 C 176.194 81.161 189.121 90.809 189.121 100.058 C 189.121 106.033 183.91 110.964 179.539 114.047 C 178.212 114.983 177.896 116.816 178.831 118.143 C 179.767 119.47 181.601 119.786 182.927 118.851 C 190.826 113.28 195 106.781 195 100.058 C 195 89.596 185.057 80.01 167.001 73.066 L 167.001 73.066 Z  M 139.954 23.884 C 142.244 23.884 144.282 24.39 146.011 25.388 C 152.717 29.26 155.09 40.828 152.519 57.125 C 151.968 60.616 151.206 64.242 150.25 67.969 C 141.939 65.998 132.889 64.567 123.392 63.722 C 118.063 56.181 112.47 49.285 106.784 43.244 C 107.825 42.218 108.866 41.222 109.905 40.264 C 121.37 29.701 132.041 23.884 139.954 23.884 L 139.954 23.884 Z  M 102.684 47.458 C 107.12 52.186 111.502 57.459 115.744 63.175 C 111.524 62.945 107.235 62.826 102.9 62.826 C 98.42 62.826 93.988 62.951 89.631 63.197 C 93.867 57.491 98.256 52.196 102.684 47.458 L 102.684 47.458 Z  M 102.663 153.141 C 98.071 148.274 93.533 142.818 89.148 136.89 C 93.66 137.154 98.254 137.29 102.9 137.29 C 107.375 137.29 111.809 137.159 116.174 136.91 C 111.793 142.814 107.248 148.279 102.663 153.141 Z  M 102.9 131.411 C 96.584 131.411 90.524 131.166 84.749 130.712 C 81.505 125.979 78.367 121 75.379 115.825 C 72.439 110.732 69.734 105.593 67.283 100.48 C 69.827 95.126 72.655 89.737 75.747 84.381 C 78.741 79.195 81.92 74.167 85.222 69.368 C 90.856 68.937 96.756 68.704 102.9 68.704 C 108.886 68.704 114.64 68.925 120.142 69.335 C 123.447 74.143 126.644 79.205 129.684 84.472 C 132.761 89.801 135.577 95.163 138.111 100.491 C 135.673 105.563 132.98 110.664 130.053 115.734 C 127.065 120.91 123.892 125.93 120.596 130.72 C 114.829 131.174 108.905 131.411 102.9 131.411 L 102.9 131.411 Z  M 77.184 129.978 C 69.952 129.143 63.239 127.968 57.116 126.526 C 58.975 120.338 61.332 113.922 64.143 107.404 C 66.062 111.201 68.112 114.997 70.288 118.765 C 72.509 122.612 74.814 126.356 77.184 129.978 Z  M 77.651 70.082 C 75.256 73.734 72.917 77.525 70.656 81.442 C 68.331 85.469 66.149 89.519 64.12 93.563 C 61.164 86.776 58.689 80.09 56.757 73.674 C 63.107 72.161 70.098 70.937 77.651 70.082 Z  M 16.678 100.058 C 16.678 90.859 29.468 81.265 51.072 75.151 C 53.515 83.304 56.794 91.855 60.793 100.488 C 56.947 108.86 53.792 117.135 51.421 125.063 C 29.606 118.954 16.678 109.306 16.678 100.058 L 16.678 100.058 Z  M 65.846 176.232 C 63.555 176.232 61.517 175.726 59.789 174.727 C 53.083 170.855 50.71 159.288 53.281 142.99 C 53.831 139.5 54.593 135.874 55.549 132.147 C 63.591 134.053 72.323 135.455 81.484 136.308 C 86.951 144.071 92.699 151.155 98.544 157.334 C 97.66 158.196 96.777 159.038 95.894 159.851 C 84.43 170.415 73.759 176.232 65.846 176.232 Z  M 152.151 143.082 C 154.722 159.379 152.349 170.947 145.643 174.819 C 138.936 178.69 127.732 174.961 114.903 164.587 C 112.202 162.403 109.489 159.976 106.786 157.337 C 112.571 151.232 118.332 144.168 123.859 136.339 C 133.042 135.496 141.817 134.106 149.878 132.22 C 150.836 135.954 151.6 139.586 152.151 143.082 L 152.151 143.082 Z  M 148.299 126.561 C 142.003 128.024 135.243 129.175 128.178 129.989 C 130.563 126.351 132.892 122.574 135.143 118.674 C 137.306 114.929 139.342 111.164 141.249 107.403 C 144.069 113.933 146.433 120.361 148.299 126.561 L 148.299 126.561 Z  M 141.276 93.584 C 139.257 89.563 137.087 85.537 134.775 81.533 C 132.495 77.583 130.128 73.742 127.691 70.031 C 135.276 70.872 142.3 72.085 148.683 73.59 C 146.741 80.054 144.254 86.767 141.276 93.584 L 141.276 93.584 Z " fill="rgb(216,0,39)"/><g transform="matrix(1,0,0,1,215,25.476)"><text transform="matrix(1,0,0,1,5.684,95.865)" style="font-family:'Sonsie One';font-weight:400;font-size:60px;font-style:normal;fill:#000000;stroke:none;">Dashboard</text></g></g></svg>